<svg xmlns="http://www.w3.org/2000/svg" viewBox="0 0 153 155.25"><defs><style>.cls-1{fill:none;stroke:#3c3c3b;stroke-miterlimit:10;stroke-width:3px;}</style></defs><g id="Lager_2" data-name="Lager 2"><g id="Lager_2-2" data-name="Lager 2"><path class="cls-1" d="M143.19,1.5H9.81A8.33,8.33,0,0,0,4,4,8.6,8.6,0,0,0,1.5,9.94V145.31A8.61,8.61,0,0,0,4,151.26a8.33,8.33,0,0,0,5.86,2.49H81.62V94.88H62.12v-23h19.5V54.91c0-19.66,11.82-30.38,29.19-30.38a114.53,114.53,0,0,1,17.44.89V45.91H116.31c-9.43,0-11.25,4.56-11.25,11.22V71.79h22.5l-2.94,23H105.06v58.93h38.13a8.33,8.33,0,0,0,5.86-2.49,8.61,8.61,0,0,0,2.45-5.95V9.94A8.6,8.6,0,0,0,149.05,4,8.33,8.33,0,0,0,143.19,1.5Z"/></g></g></svg>