<svg xmlns="http://www.w3.org/2000/svg" viewBox="0 0 150 152.25"><defs><style>.cls-1{fill:#3c3c3b;}</style></defs><g id="Lager_2" data-name="Lager 2"><g id="Lager_2-2" data-name="Lager 2"><path class="cls-1" d="M141.69,0H8.31A8.33,8.33,0,0,0,2.45,2.49,8.6,8.6,0,0,0,0,8.44V143.81a8.61,8.61,0,0,0,2.45,5.95,8.33,8.33,0,0,0,5.86,2.49H80.12V93.38H60.62v-23h19.5V53.41C80.12,33.75,91.94,23,109.31,23a114.53,114.53,0,0,1,17.44.89V44.41H114.81c-9.43,0-11.25,4.56-11.25,11.22V70.29h22.5l-2.94,23H103.56v58.93h38.13a8.33,8.33,0,0,0,5.86-2.49,8.61,8.61,0,0,0,2.45-5.95V8.44a8.6,8.6,0,0,0-2.45-5.95A8.33,8.33,0,0,0,141.69,0Z"/></g></g></svg>