<svg xmlns="http://www.w3.org/2000/svg" viewBox="0 0 153 153"><defs><style>.cls-1{fill:none;stroke:#3c3c3b;stroke-miterlimit:10;stroke-width:3px;}</style></defs><g id="Lager_2" data-name="Lager 2"><g id="Lager_2-2" data-name="Lager 2"><path class="cls-1" d="M76.5,38a38.51,38.51,0,1,0,27.23,11.28A38.55,38.55,0,0,0,76.5,38Zm0,63.51a25,25,0,1,1,17.68-7.32A25.06,25.06,0,0,1,76.5,101.5Z"/><path class="cls-1" d="M76.5,15c20,0,22.4.08,30.31.44A41.64,41.64,0,0,1,120.73,18,24.81,24.81,0,0,1,135,32.27a41.64,41.64,0,0,1,2.58,13.92c.36,7.91.44,10.28.44,30.32s-.08,22.39-.44,30.3A41.64,41.64,0,0,1,135,120.73,24.81,24.81,0,0,1,120.73,135a41.64,41.64,0,0,1-13.92,2.58c-7.91.36-10.28.44-30.31.44s-22.4-.08-30.31-.44A41.64,41.64,0,0,1,32.27,135,24.81,24.81,0,0,1,18,120.73a41.64,41.64,0,0,1-2.58-13.92C15.09,98.9,15,96.53,15,76.5s.08-22.4.44-30.31A41.64,41.64,0,0,1,18,32.27,24.81,24.81,0,0,1,32.27,18a41.64,41.64,0,0,1,13.92-2.58C54.1,15.09,56.47,15,76.5,15Zm0-13.51c-20.37,0-22.93.09-30.93.45A54.89,54.89,0,0,0,27.38,5.44,38.32,38.32,0,0,0,5.44,27.38,54.69,54.69,0,0,0,2,45.58c-.36,8-.45,10.54-.45,30.92s.09,22.93.45,30.93a54.89,54.89,0,0,0,3.49,18.19,38.32,38.32,0,0,0,21.94,21.94,54.69,54.69,0,0,0,18.2,3.49c8,.36,10.55.45,30.92.45s22.93-.09,30.93-.45a54.74,54.74,0,0,0,18.2-3.49,38.32,38.32,0,0,0,21.94-21.94,54.93,54.93,0,0,0,3.48-18.2c.36-8,.45-10.54.45-30.92s-.09-22.93-.45-30.93a55.14,55.14,0,0,0-3.49-18.19A38.32,38.32,0,0,0,125.62,5.44,54.93,54.93,0,0,0,107.42,2C99.42,1.58,96.88,1.5,76.5,1.5Z"/></g></g></svg>