<svg xmlns="http://www.w3.org/2000/svg" viewBox="0 0 150 150"><defs><style>.cls-1{fill:#3c3c3b;}</style></defs><g id="Lager_2" data-name="Lager 2"><g id="Lager_2-2" data-name="Lager 2"><path class="cls-1" d="M115,44a9,9,0,1,0-9-9A9,9,0,0,0,115,44Z"/><path class="cls-1" d="M75,36.49a38.51,38.51,0,1,0,27.23,11.28A38.55,38.55,0,0,0,75,36.49ZM75,100a25,25,0,1,1,17.68-7.32A25.06,25.06,0,0,1,75,100Z"/><path class="cls-1" d="M75,13.51c20,0,22.4.08,30.31.44a41.64,41.64,0,0,1,13.92,2.58,24.81,24.81,0,0,1,14.24,14.24,41.64,41.64,0,0,1,2.58,13.92c.36,7.91.44,10.28.44,30.32s-.08,22.39-.44,30.3a41.64,41.64,0,0,1-2.58,13.92,24.81,24.81,0,0,1-14.24,14.24,41.64,41.64,0,0,1-13.92,2.58c-7.91.36-10.28.44-30.31.44s-22.4-.08-30.31-.44a41.64,41.64,0,0,1-13.92-2.58,24.81,24.81,0,0,1-14.24-14.24A41.64,41.64,0,0,1,14,105.31C13.59,97.4,13.51,95,13.51,75s.08-22.4.44-30.31a41.64,41.64,0,0,1,2.58-13.92A24.81,24.81,0,0,1,30.77,16.53,41.64,41.64,0,0,1,44.69,14C52.6,13.59,55,13.51,75,13.51ZM75,0C54.63,0,52.07.09,44.07.45A54.89,54.89,0,0,0,25.88,3.94,38.32,38.32,0,0,0,3.94,25.88,54.69,54.69,0,0,0,.45,44.08C.09,52.08,0,54.62,0,75s.09,22.93.45,30.93a54.89,54.89,0,0,0,3.49,18.19,38.32,38.32,0,0,0,21.94,21.94,54.69,54.69,0,0,0,18.2,3.49c8,.36,10.55.45,30.92.45s22.93-.09,30.93-.45a54.74,54.74,0,0,0,18.2-3.49,38.32,38.32,0,0,0,21.94-21.94,54.93,54.93,0,0,0,3.48-18.2c.36-8,.45-10.54.45-30.92s-.09-22.93-.45-30.93a55.14,55.14,0,0,0-3.49-18.19A38.32,38.32,0,0,0,124.12,3.94,54.93,54.93,0,0,0,105.92.46C97.92.08,95.38,0,75,0Z"/></g></g></svg>