<svg xmlns="http://www.w3.org/2000/svg" viewBox="0 0 153 152.38"><defs><style>.cls-1{fill:none;stroke:#3c3c3b;stroke-miterlimit:10;stroke-width:3px;}</style></defs><g id="Lager_2" data-name="Lager 2"><g id="Lager_2-2" data-name="Lager 2"><path class="cls-1" d="M140.25,1.5H12.75C6.5,1.5,1.5,6.5,1.5,12.12V140.25c0,5.63,5,10.63,11.25,10.63h127.5c6.25,0,11.25-5,11.25-10.63V12.12C151.5,6.5,146.5,1.5,140.25,1.5ZM45.88,129H24V57.75H45.88ZM35.25,47.75A13.21,13.21,0,0,1,22.12,34.62,12.82,12.82,0,0,1,35.25,21.5a13.13,13.13,0,1,1,0,26.25Zm94.37,80.63H107.75v-35c0-8.13,0-19.38-11.87-19.38S82.75,83.38,82.75,92.12v35.63H60.88v-70H81.5v9.37h.62a24.41,24.41,0,0,1,21.26-11.87c22.5,0,26.87,15,26.87,34.37v38.76Z"/></g></g></svg>