<svg xmlns="http://www.w3.org/2000/svg" viewBox="0 0 150 149.38"><defs><style>.cls-1{fill:#3c3c3b;}</style></defs><g id="Lager_2" data-name="Lager 2"><g id="Lager_2-2" data-name="Lager 2"><path class="cls-1" d="M138.75,0H11.25C5,0,0,5,0,10.62V138.75c0,5.63,5,10.63,11.25,10.63h127.5c6.25,0,11.25-5,11.25-10.63V10.62C150,5,145,0,138.75,0ZM44.38,127.5H22.5V56.25H44.38ZM33.75,46.25A13.21,13.21,0,0,1,20.62,33.12,12.82,12.82,0,0,1,33.75,20a13.13,13.13,0,1,1,0,26.25Zm94.37,80.63H106.25v-35c0-8.13,0-19.38-11.87-19.38S81.25,81.88,81.25,90.62v35.63H59.38v-70H80v9.37h.62a24.41,24.41,0,0,1,21.26-11.87c22.5,0,26.87,15,26.87,34.37v38.76Z"/></g></g></svg>