<svg xmlns="http://www.w3.org/2000/svg" viewBox="0 0 849.95 590.95"><defs><style>.cls-1{fill:#fac49f;}.cls-2{fill:#3c3c3b;}</style></defs><g id="Lager_2" data-name="Lager 2"><path class="cls-1" d="M411.38,199.27a310.77,310.77,0,0,1-10.76,51.93c-1,3.37-2.4,6.56-5.18,8.86a20.9,20.9,0,0,1-7.53,3.6c-6.22,1.8-12.78,2.32-18.8,4.84C355.89,274,348.69,287.38,343.55,300s-9.2,27-20.05,36.16c-6.07,5.12-13.88,7.43-21.3,9.77l-26.3,8.28-6.64,2.09c-3.06,1-1.75,5.79,1.33,4.82l26.77-8.43c8.14-2.56,16.72-4.73,24.14-9.06,13.24-7.74,19.16-22.33,24.4-36,4.71-12.23,10.2-26.34,22.23-33.15,11.19-6.33,28.23-3.08,35.07-16.23,1.95-3.75,2.92-8,4-12q1.78-6.63,3.31-13.33,3-13.28,4.94-26.77c.32-2.28.63-4.58.91-6.87a2.51,2.51,0,0,0-2.5-2.5,2.56,2.56,0,0,0-2.5,2.5Z"/><path class="cls-2" d="M527.16,146.42a64.91,64.91,0,0,0,12.18,36.63,70,70,0,0,0,30.13,24.3,63.61,63.61,0,0,0,19.66,4.53c4.39.33,8.83.44,13.13,1.49a31.4,31.4,0,0,1,9.45,4.09c5.72,3.64,10.32,8.8,14.55,14,4.44,5.49,8.55,11.24,13.29,16.49a113.79,113.79,0,0,0,36.79,27c1.73.8,3.47,1.54,5.23,2.25,1.49.6,2.14-1.81.67-2.41a111.43,111.43,0,0,1-37.52-25,179.44,179.44,0,0,1-13.65-16.25c-4.16-5.34-8.44-10.68-13.68-15a36.4,36.4,0,0,0-18.52-8.34c-4.24-.58-8.52-.64-12.77-1.1a57,57,0,0,1-9.51-1.9,65.84,65.84,0,0,1-31.72-21.06,63.93,63.93,0,0,1-15-35c-.14-1.58-.21-3.17-.23-4.76a1.25,1.25,0,0,0-2.5,0Z"/><path class="cls-2" d="M620.22,58.45c2,23.72,4.75,50,23.12,67.29a44.89,44.89,0,0,0,13.09,8.69c5.89,2.51,12.23,3.28,18.48,4.4,12,2.16,23,7,33.27,13.55,11.55,7.32,21.92,16.32,32.18,25.32.6.53,1.49-.35.88-.88-17.43-15.29-35.89-31.34-58.75-37.58-6.31-1.72-12.85-2.27-19.19-3.85a41.88,41.88,0,0,1-14.92-7c-8.81-6.54-15.14-16.15-19-26.32-5.31-13.9-6.62-28.87-7.89-43.58-.07-.8-1.32-.8-1.25,0Z"/><path class="cls-2" d="M538.48,335.56c2.64,6,1.71,12.77-1.2,18.5A33.47,33.47,0,0,1,523.43,368c-12.37,6.91-26.89,8.05-39.92,13.29-5.82,2.34-11.41,5.49-15.79,10.05s-7,10.1-9.86,15.53c-3,5.64-6.36,11.31-11.88,14.81-6.25,4-13.89,5-21.05,6.16a401.37,401.37,0,0,1-49.9,4.86q-3.07.11-6.15.16c-.32,0-.32.51,0,.5a402.07,402.07,0,0,0,50.58-4.18c7.55-1.11,15.58-1.94,22.66-4.94,6-2.52,10.26-7,13.57-12.46s5.74-11.48,9.52-16.67c4.13-5.66,10-9.62,16.31-12.44,13.11-5.83,27.88-6.85,40.69-13.45a35.29,35.29,0,0,0,14.33-12.77c3.07-5,4.8-11.09,3.68-17a19.36,19.36,0,0,0-1.31-4.14c-.13-.29-.56,0-.43.26Z"/><path class="cls-2" d="M526.05,366.78A39,39,0,0,0,537.54,391a42.69,42.69,0,0,0,11.83,7.95c4.41,2.09,9,3.85,13.13,6.5A31.73,31.73,0,0,1,572,415.49c2.22,3.49,4.16,7.18,6.66,10.49a20.29,20.29,0,0,0,8.4,6.93c5.1,2,10.71,1.1,16.05,1.17a61.7,61.7,0,0,1,34.55,11.26c.26.18.51-.25.25-.44A62.41,62.41,0,0,0,609.28,434a61.71,61.71,0,0,0-7.69-.4c-2.77,0-5.55.25-8.33.09A17.56,17.56,0,0,1,581,428c-5.56-6-8.14-14.19-14.14-19.83-7-6.59-17-8.37-24.65-13.92a38.43,38.43,0,0,1-15.62-27.46c0-.32-.53-.32-.5,0Z"/><path class="cls-2" d="M540.07,340.76c-.57,11.12,9,19.06,18.64,22.52,6.41,2.31,13.3,2.89,20.06,3.12,3.67.12,7.35.14,11,.26a53.29,53.29,0,0,1,10.85,1,20,20,0,0,1,9,5.29c2.41,2.25,4.8,4.48,7.39,6.51a66.37,66.37,0,0,0,16.65,9.68c13.42,5.25,28.37,5,42.54,5.62l52.24,2.39c.33,0,.33-.48,0-.5l-45.27-2.07c-7.48-.35-15-.63-22.45-1.06a102.44,102.44,0,0,1-21-2.91,61,61,0,0,1-18.1-8.4,76.42,76.42,0,0,1-7.88-6.11c-2.37-2.09-4.52-4.47-7.11-6.29-5.29-3.75-12.31-3.59-18.52-3.75-7.28-.19-14.63-.07-21.82-1.36-11.86-2.12-26.47-10.05-25.76-24,0-.32-.49-.32-.5,0Z"/><path class="cls-2" d="M561.06,405c-4.81,6.74-5.08,15.28-4.23,23.23.9,8.42,3.12,16.72,2.6,25.25A25.93,25.93,0,0,1,555,467.22c-.19.26.25.51.43.25,4.81-6.74,5.08-15.28,4.22-23.23-.9-8.42-3.12-16.72-2.6-25.25a26,26,0,0,1,4.47-13.72c.19-.26-.24-.51-.43-.25Z"/><path class="cls-2" d="M421.41,428.38a20.35,20.35,0,0,0-10.06,7.92c-2.5,3.83-3,9-6.24,12.27-3.5,3.54-9.1,2.95-13.39,4.9s-7.25,5.41-9.91,9c-3.22,4.34-6.19,9.23-11.25,11.64-.29.14,0,.57.25.43,8.66-4.12,11.33-14.81,19.44-19.72,4-2.45,9-2.06,13.05-4.27,3.92-2.12,5-6.5,6.6-10.33a20,20,0,0,1,11.64-11.35c.3-.1.17-.59-.13-.48Z"/></g></svg>