<svg xmlns="http://www.w3.org/2000/svg" viewBox="0 0 841.89 595.28"><defs><style>.cls-1{fill:#f8f6f1;stroke:#1d1d1b;}.cls-1,.cls-3,.cls-4{stroke-miterlimit:10;}.cls-2,.cls-5,.cls-6{fill:#3c3c3b;}.cls-3,.cls-4{fill:none;stroke:#3c3c3b;}.cls-3{stroke-width:0.5px;}.cls-5{font-size:80px;}.cls-5,.cls-6{font-family:MuseoSans-700, Museo Sans;font-weight:700;}.cls-6{font-size:20px;}.cls-7{letter-spacing:-0.03em;}</style></defs><g id="Lager_2" data-name="Lager 2"><path class="cls-1" d="M841.89-50V510.71c-27.84,3.31-51.75,5.06-70.58,6.05-19.14,1-33.63,1.23-46.75,1.44-13.59.22-24.83.4-35.22.4-13.77,0-26.05-.32-40.34-1.28-12.63-.85-14.32-1.37-32.69-3.11l-1.42-.13c-4-.38-8.78-.81-14.56-1.31-11.77-1-32.25-2.79-44.71-3.5-50.7-2.92-59.92,6.37-110.44,5.67-3.25,0-6.19-.12-8.87-.23l-.93,0c-28.73-1.26-26.81-5.85-60.74-5.53-32.14.31-45.06,4.53-84.56,4-23.05-.32-20.95-1.79-45.72-2.52-53.64-1.6-60.2,5.38-100.47,3.8-40.62-1.61-43-9.07-85.39-10.95A369.76,369.76,0,0,0,0,505.52V-50Z"/><path class="cls-2" d="M312.88,512.87c-.09-18.76-.17-37.85,5-56.05a84.84,84.84,0,0,1,10.58-23.44c4.25-6.5,9.21-12.49,13.72-18.81,4.92-6.88,9.32-14.25,11.31-22.55a.25.25,0,0,0-.48-.13c-3.69,15.37-15.25,26.9-23.89,39.6a85.43,85.43,0,0,0-10.95,22.62,124.18,124.18,0,0,0-4.91,26.07c-1,10.87-.92,21.79-.87,32.69a.25.25,0,0,0,.5,0Z"/><path class="cls-2" d="M316.17,462.51c.93-6.14-2.22-11.73-5.7-16.52-1.92-2.64-4-5.18-5.64-8a33.48,33.48,0,0,1-3.67-9.22c-1.59-6.55-1.71-13.39-2.08-20.09l-1.2-21.86L296.51,362c0-.32-.52-.32-.5,0l2.4,43.47c.36,6.53.47,13.14,1.5,19.6a41.36,41.36,0,0,0,2.49,9.22,39.65,39.65,0,0,0,4.72,8c4.27,5.86,9.75,12.28,8.57,20.08-.05.31.43.45.48.13Z"/><path class="cls-2" d="M299.11,405.48c1.69-17.06,14.43-30.08,20.86-45.35A45.86,45.86,0,0,0,323.48,347c0-.32-.47-.32-.5,0-1.76,17.06-14.5,30.05-20.91,45.35a45.62,45.62,0,0,0-3.46,13.11c0,.32.47.32.5,0Z"/><path class="cls-2" d="M317.79,457.39c0-1.34,1.33-2.15,2.33-2.8a30.39,30.39,0,0,1,3.08-1.78,32.56,32.56,0,0,1,6.94-2.58c.12,0,.73-.25.81-.19.3.24-.27.68-.44.8a10.38,10.38,0,0,1-1.77.87l-3.66,1.71L317.51,457c-.29.13,0,.56.26.43L325,454l3.54-1.65a7.21,7.21,0,0,0,2.75-1.56c.26-.33.51-1.15-.11-1.3a3.72,3.72,0,0,0-1.37.3c-.58.14-1.15.3-1.72.48a33.32,33.32,0,0,0-6.26,2.7,22.72,22.72,0,0,0-3.06,2,3.2,3.2,0,0,0-1.45,2.44.25.25,0,0,0,.5,0Z"/><path class="cls-2" d="M317,455.74a50.56,50.56,0,0,0-1.23-18.54l-.46.19a22.44,22.44,0,0,1,1.47,16.93c-.09.31.39.44.49.14a23,23,0,0,0-1.53-17.32c-.13-.26-.52-.08-.46.19a50.31,50.31,0,0,1,1.22,18.41c0,.32.46.31.5,0Z"/><path class="cls-2" d="M298.53,400.49a19.47,19.47,0,0,0-7.66-12c-.24-.17-.49.2-.31.4a47.52,47.52,0,0,1,7.27,10.4c.15.29.58,0,.43-.25a48.15,48.15,0,0,0-7.34-10.51l-.3.39A19,19,0,0,1,298,400.62c.06.32.55.18.49-.13Z"/><path class="cls-2" d="M336.05,421.4c-2-3.45-2.78-7.44-3.42-11.33a77.27,77.27,0,0,1-1-11.86A78.39,78.39,0,0,1,335,375.09a76.6,76.6,0,0,1,5-12.46c.15-.28-.29-.54-.43-.25a78.55,78.55,0,0,0-7.61,46.31c.63,4.42,1.45,9.05,3.69,13a.26.26,0,0,0,.44-.26Z"/><path class="cls-2" d="M331.67,394.66a17,17,0,0,1,8.22-7.69l-.3-.39-7.84,8.05a.25.25,0,0,0,.36.35l7.83-8.05a.25.25,0,0,0-.3-.39,17.41,17.41,0,0,0-8.4,7.87c-.15.29.28.54.43.25Z"/><path class="cls-2" d="M332,390.73a14.16,14.16,0,0,0-4.18-6.17c-.24-.21-.6.14-.35.35a13.8,13.8,0,0,1,4.05,5.95c.1.3.59.17.48-.13Z"/><path class="cls-3" d="M324,348.61c-.91-.82,0-3.12,1.27-6.34,1.51-3.79,2.31-5.72,4.22-7,.25-.17,3.07-1.95,4.64-.85.9.63,1,1.89,1.06,3.17a10.22,10.22,0,0,1-1.48,6.54c-2,3.14-5.16,3.9-7.39,4.44C324.64,349,324.21,348.79,324,348.61Z"/><path class="cls-3" d="M313.67,338.35c-.12,1.55-.49,6.19,2.75,8.65,1.88,1.44,5,2.17,6.33.85.91-.92.61-2.53.21-4.65a12.93,12.93,0,0,0-2.74-6.12c-.75-.9-3.15-3.79-4.86-3.16C314,334.42,313.78,337,313.67,338.35Z"/><path class="cls-3" d="M321.77,348.41c-2.67-1.19-3.08-4.74-3.17-5.49-.26-2.2.46-3.79,1.9-7s2.18-3.31,2.53-3.38c1.59-.32,3.13,1.58,3.38,1.9a7,7,0,0,1,1.27,3.59,16.52,16.52,0,0,1-.42,6.33c-.44,2.13-.68,3.2-1.48,3.8A4.14,4.14,0,0,1,321.77,348.41Z"/><path class="cls-3" d="M352.45,393.5c-.37-.75.8-2,2.43-3.66,1.94-2,2.94-3,4.46-3.3.21,0,2.44-.43,3.15.67.4.63.12,1.44-.16,2.27a6.92,6.92,0,0,1-2.62,3.74,7.46,7.46,0,0,1-5.8.88C352.73,393.92,352.52,393.66,352.45,393.5Z"/><path class="cls-3" d="M348.59,384.36c-.48.95-1.91,3.77-.51,6.16.81,1.4,2.61,2.67,3.77,2.18.81-.35,1-1.44,1.33-2.88a8.76,8.76,0,0,0-.14-4.56c-.24-.76-1-3.21-2.24-3.25C349.8,382,349,383.52,348.59,384.36Z"/><path class="cls-3" d="M351.08,392.8c-1.37-1.45-.71-3.79-.57-4.28.41-1.46,1.27-2.27,3-3.9s2.23-1.52,2.47-1.47c1.08.21,1.56,1.81,1.63,2.07a4.77,4.77,0,0,1-.13,2.59,11.16,11.16,0,0,1-1.9,3.88c-.83,1.22-1.26,1.84-1.92,2A2.82,2.82,0,0,1,351.08,392.8Z"/><path class="cls-3" d="M296.92,364.52c-1-.54-.66-2.78-.19-5.91.56-3.7.87-5.59,2.31-7.09.2-.2,2.33-2.38,4-1.72.92.37,1.26,1.47,1.6,2.6a9.38,9.38,0,0,1,.05,6.14c-1.16,3.22-3.79,4.55-5.67,5.5C297.57,364.76,297.14,364.64,296.92,364.52Z"/><path class="cls-3" d="M285.56,357.53c.22,1.4.86,5.62,4.26,7.14,2,.89,4.94.89,5.82-.56.62-1,0-2.39-.78-4.19a11.85,11.85,0,0,0-3.72-4.88c-.86-.65-3.6-2.73-5-1.82C285,354,285.37,356.27,285.56,357.53Z"/><path class="cls-3" d="M294.88,364.81c-2.63-.51-3.73-3.58-4-4.23-.69-1.91-.38-3.48.24-6.61s1.26-3.4,1.56-3.54c1.35-.61,3.12.76,3.41,1a6.39,6.39,0,0,1,1.87,2.94,14.87,14.87,0,0,1,.95,5.73c.05,2,.06,3-.53,3.7A3.78,3.78,0,0,1,294.88,364.81Z"/><path class="cls-3" d="M339.93,362.94c-.46-.65.43-2,1.69-3.85,1.5-2.2,2.27-3.31,3.66-3.83.18-.07,2.22-.81,3.07.11.48.53.35,1.34.22,2.16a6.65,6.65,0,0,1-1.85,4,7.12,7.12,0,0,1-5.31,1.78C340.27,363.29,340,363.08,339.93,362.94Z"/><path class="cls-3" d="M334.8,355c-.29,1-1.18,3.87.53,5.89,1,1.18,2.89,2.08,3.9,1.42.71-.46.75-1.52.79-2.92a8.39,8.39,0,0,0-.89-4.27c-.34-.68-1.46-2.86-2.64-2.69C335.55,352.53,335.06,354.11,334.8,355Z"/><path class="cls-3" d="M338.53,362.5c-1.52-1.13-1.29-3.44-1.24-3.93.15-1.44.82-2.34,2.18-4.16s1.85-1.79,2.08-1.79c1.06,0,1.77,1.44,1.88,1.68a4.59,4.59,0,0,1,.31,2.46,10.69,10.69,0,0,1-1.16,4c-.58,1.29-.88,1.94-1.47,2.21A2.72,2.72,0,0,1,338.53,362.5Z"/><path class="cls-2" d="M302.87,434.87c-1.21-1.65-3-2.38-4.83-3.24a9,9,0,0,1-5-5.73c-.86-2.62-1.42-5.34-2.2-8q-1.32-4.5-2.9-8.93c-.1-.3-.59-.17-.48.13q1.57,4.42,2.9,8.93c.81,2.77,1.37,5.64,2.33,8.36a8.84,8.84,0,0,0,3.59,4.86c2.07,1.28,4.67,1.82,6.18,3.87.19.25.62,0,.43-.26Z"/><path class="cls-3" d="M287.82,410.07c-.48-.19-.47-1.26-.44-2.74,0-1.75.07-2.64.64-3.43.08-.1.93-1.23,1.72-1,.45.12.67.61.89,1.12a4.42,4.42,0,0,1,.39,2.86,4.65,4.65,0,0,1-2.28,2.86C288.13,410.15,287.92,410.11,287.82,410.07Z"/><path class="cls-3" d="M282.19,407.44c.18.65.72,2.57,2.37,3.09,1,.31,2.32.14,2.64-.58.23-.5-.13-1.11-.6-1.9a5.44,5.44,0,0,0-2-2.07c-.43-.26-1.81-1.08-2.4-.57S282,406.87,282.19,407.44Z"/><path class="cls-3" d="M286.9,410.32c-1.24-.09-1.93-1.46-2.07-1.75a5.48,5.48,0,0,1-.28-3.09c.09-1.42.37-1.65.5-1.73.59-.36,1.48.18,1.62.27a3.05,3.05,0,0,1,1,1.26,7.31,7.31,0,0,1,.77,2.62c.14.92.21,1.39,0,1.75A1.73,1.73,0,0,1,286.9,410.32Z"/><path class="cls-2" d="M450.11,314.06A122.78,122.78,0,0,1,465,351.16c1.55,6.64,2.77,13.35,4,20s2.51,13.68,3.58,20.55a286.48,286.48,0,0,1,3.31,40.54c.18,13-.1,26.06.65,39.06.82,14.16,2.94,28.32,8.14,41.58.11.29.6.16.48-.14-9.58-24.43-8.52-51.09-8.73-76.86a298,298,0,0,0-2.67-39.71c-2-13.73-4.46-27.48-7.36-41-3.13-14.63-8-28.62-15.89-41.38-.16-.27-.6,0-.43.25Z"/><path class="cls-3" d="M442.86,303.55c-4.05-1.28-9.34-1.35-14.68-.6-11,1.57-22.27,6.69-23.09,12.08-.33,2.12.8,5.32,2.45,7.57,2.18,3,4.11,2.68,7.07,5.26,5.36,4.67,3.71,9.63,7.37,11.17,2.52,1.05,5.77-.87,12.19-4.76,7.46-4.53,11.2-6.8,13.36-10.74a23.53,23.53,0,0,0,2.8-9.59.27.27,0,0,0,0-.09,13.13,13.13,0,0,0-.1-2.35"/><path class="cls-3" d="M428.18,303a37.92,37.92,0,0,0-5.84-.12c-5.31.33-6.17,1.66-9.87.85-3-.66-7.31-2.59-7.39-5-.1-2.7,5.26-2.54,9.2-7.88,3.23-4.37,1.79-7.37,5.88-11.91,1.63-1.81,3.23-3.57,5.39-3.64,2.38-.08,4.54,1.91,10.34,11.51l1.68,2.79"/><path class="cls-3" d="M443,303.39c-.7-1.28-1.4-2.71-2.14-4.22-3.35-6.82-4-12.41-5-21.58-1.17-10.89,0-12.59,1.05-13.25,2.49-1.55,6,1.51,10.32-.68,2.52-1.26,2.66-3,4.68-3.12,2.48-.19,3,2.3,6.76,3.71,4,1.52,5.65-.55,7.92,1.1,2.94,2.15,1.41,6.48,4.22,7.87,1.79.89,2.83-.69,5.32-.05,3.59.91,6.53,5.48,5.58,8.22-.66,1.87-2.92,2.2-5.71,3.33a22.54,22.54,0,0,0-6.63,4.58c-2.25,2.05-4.89,4.8-8.36,8.4-3.25,3.39-5.38,5.89-6.94,7.66h0"/><path class="cls-3" d="M469.44,289.3c1.21-.55,2.49-1.1,3.85-1.69,11.86-5.16,13.89-3.28,14.34-2.73,1,1.21-.25,2.94,1.17,5.19s2.95,1.52,4.33,3.56.13,3.39,1.3,6.52,3.12,3.27,3.5,5.3c.67,3.52-4.28,7.67-8,9.74-2.33,1.3-6.07,2.81-18.34,2.46s-18.83-.54-21.25-3.8"/><path class="cls-3" d="M497.69,432.63a9.63,9.63,0,0,1,3.81,3.53,7.55,7.55,0,0,1,1.17,4.9,4.7,4.7,0,0,1-1.3,2.87,3.54,3.54,0,0,1-2.64,1.09,3.48,3.48,0,0,1-2.17-1.19c-.95-1-1.17-2.07-1.57-4.18a21.55,21.55,0,0,1-.2-5.36c.13-1.52.34-2.07.76-2.28C495.79,431.89,496.27,431.78,497.69,432.63Z"/><path class="cls-3" d="M457.65,430.06a11.9,11.9,0,0,1,.44,1.21c.19.66.89,3.08-.4,4.57a2.36,2.36,0,0,1-1.95.92c-1.11-.12-1.9-1.21-2.38-1.87a9.32,9.32,0,0,1-1.56-3.53"/><path class="cls-3" d="M457.92,430c0-.33,0-.7,0-1.12a16.25,16.25,0,0,0-.77-5.15c-1.21-3.2-4.27-6.72-6.08-6.32-1.08.24-1.4,1.77-1.76,3.48a13.5,13.5,0,0,0,1.14,8.4,18.84,18.84,0,0,0,1.14,2.14A50.8,50.8,0,0,1,457.92,430Z"/><path class="cls-2" d="M476.39,445.27c-11.08-16.15-10-36.55-13.28-55.06a53.29,53.29,0,0,0-3.3-12.43c-1.32-3-3.38-5.95-6.52-7.21-1.44-.58-3.28-.92-4.68,0s-1.82,2.91-2.22,4.47a62.66,62.66,0,0,0-1.83,13.41,63.65,63.65,0,0,0,6.19,29.24c.14.29.57,0,.43-.25a63,63,0,0,1-6.12-25.29,62.24,62.24,0,0,1,1-13.14,36.39,36.39,0,0,1,1.44-6,3.23,3.23,0,0,1,3.07-2.45,7,7,0,0,1,3.11.78c3.25,1.6,5.16,5.07,6.35,8.34a67.28,67.28,0,0,1,2.92,12.61c1.45,9.06,2,18.24,3.51,27.29s4.2,18.27,9.5,26c.19.27.62,0,.44-.25Z"/><path class="cls-2" d="M477.82,479.44c.27-4-.47-8,.24-12s3.16-7,4.72-10.49A44.41,44.41,0,0,0,486,446.4a45.29,45.29,0,0,0,.59-5.19A41.93,41.93,0,0,1,487,435c.41-2,1.52-4.07,3.49-4.87a3.44,3.44,0,0,1,4.71,2.29c.06.32.54.18.48-.13-.49-2.65-3.71-3.58-5.89-2.39-3.37,1.85-3.56,6.13-3.64,9.49a45.13,45.13,0,0,1-2.22,13.23,43.3,43.3,0,0,1-2.77,6.55c-.93,1.78-2,3.49-2.78,5.36-1.92,4.77-.73,10-1.07,14.94,0,.32.48.32.5,0Z"/><path class="cls-3" d="M447.48,301.84c-2.42.5-4.49.94-5.35,2.67s-.1,4.28,1.26,5.64c2.68,2.65,8.54,2.09,10.28-1.27,1.2-2.31.41-5.84-1.69-7C450.78,301.15,449.48,301.42,447.48,301.84Z"/><path class="cls-4" d="M-15.13,507.58c4.39-.69,9.46-1.41,15.13-2.06a369.76,369.76,0,0,1,58.5-2.06c42.35,1.88,44.77,9.34,85.39,10.95,40.27,1.58,46.83-5.4,100.47-3.8,24.77.73,22.67,2.2,45.72,2.52,39.5.54,52.42-3.68,84.56-4,33.93-.32,32,4.27,60.74,5.53l.93,0c2.68.11,5.62.19,8.87.23,50.52.7,59.74-8.59,110.44-5.67,12.46.71,32.94,2.49,44.71,3.5,5.78.5,10.55.93,14.56,1.31l1.42.13c18.37,1.74,20.06,2.26,32.69,3.11,14.29,1,26.57,1.28,40.34,1.28,10.39,0,21.63-.18,35.22-.4,13.12-.21,27.61-.44,46.75-1.44,18.83-1,42.74-2.74,70.58-6.05l8.06-1"/><path class="cls-2" d="M587.83,511.58c1-16.93,2.47-33.88,2.8-50.85a258.45,258.45,0,0,0-2.44-39.5C586.77,410.58,585,400,583.1,389.4c-.05-.31-.53-.18-.48.14,2.93,16.63,5.84,33.35,7,50.22.93,13.31.45,26.62-.31,39.93-.62,10.63-1.34,21.26-2,31.89,0,.32.49.32.5,0Z"/><path class="cls-2" d="M588.56,376.26a61.37,61.37,0,0,1,5.16-14.71l-.45-.19-3.37,11.9c-.09.31.37.43.48.13a20.58,20.58,0,0,1,6.18-8.66l-.39-.3-5.91,9.39c-.16.25.19.47.4.3q4.23-3.51,8.73-6.67l-.31-.39L589.84,375a.26.26,0,0,0,.18.43,34.34,34.34,0,0,0,13.24-2.53.25.25,0,0,0-.13-.49l-11.45,1.92a.25.25,0,0,0-.06.45,50.29,50.29,0,0,0,11.94,3.59l.06-.5q-8.05,0-16.09.49a.25.25,0,0,0-.07.49,136.77,136.77,0,0,1,17.83,6.1l.12-.46c-4.41.13-8.27-2.08-12.33-3.47a32.62,32.62,0,0,0-11.82-1.56c-8.6.29-17,2.69-25.64,2.55v.5a122.52,122.52,0,0,0,28.07-4.57.25.25,0,0,0-.06-.49,106.4,106.4,0,0,1-23.93-3.7l-.14.49,14.87,2.06c.31.05.45-.39.14-.48a41.29,41.29,0,0,1-12.5-6.11l-.13.46a45.1,45.1,0,0,1,14.74,3.39l.13-.49a23.28,23.28,0,0,1-10.34-6.92l-.25.42a63,63,0,0,1,14.89,4.84.25.25,0,0,0,.25-.43,21.91,21.91,0,0,1-7-7.18l-.34.34a33.2,33.2,0,0,1,10.67,7.69l.06-.4A74,74,0,0,1,562,378.35a.25.25,0,0,0,0,.5l18.46.45-.07-.49a89.64,89.64,0,0,0-16.09,6.05c-.28.13-.06.49.19.46A151.39,151.39,0,0,0,581.27,382l-.13-.49-8,2.82.13.48,14.32-5.45-.24-.42a66.43,66.43,0,0,1-8.1,8.5l.41.24a9.8,9.8,0,0,1,5-6.34l-.36-.15a10.7,10.7,0,0,1,0,5.78c-.07.27.34.46.46.2l2-4.59-.35.09,5,3.42c.23.16.43-.14.34-.34a18.11,18.11,0,0,0-3.71-5.56l-.18.42,4,.27a.26.26,0,0,0,.18-.43,55.69,55.69,0,0,1-12.65-18.29c-.11-.26-.55-.08-.45.19a36.1,36.1,0,0,0,4,8.1.26.26,0,0,0,.44,0,10.17,10.17,0,0,0,2-7.81c-.05-.28-.5-.21-.49.07a43.08,43.08,0,0,0,1,8.7.25.25,0,0,0,.48,0,32.79,32.79,0,0,1,2.47-5.43l-.39,0c2.43,2.22.42,5.89-2.18,6.85-3,1.1-6.55.18-9.44-.83q-1.2-.42-2.37-1c-.36-.17-2.59-1-1.3-1.39.56-.18,1.58.43,2.07.62l2.73,1.14a90.81,90.81,0,0,1,8.91,4.52l.13-.47a27.27,27.27,0,0,1-15.4-2.78l-.19.46a158.26,158.26,0,0,1,16.84,3.37l.07-.49q-12,.21-24,1.59c-.26,0-.37.44-.07.49l4.24.7c1.34.22,3.71.19,3.86,2,.18,2.32-2.33,3.74-2.89,5.86a.25.25,0,0,0,.41.24l6.08-5.4-.39-.31L570.84,391a.25.25,0,0,0,.43.26A122.55,122.55,0,0,0,579,378.31l-.46-.19-2.07,11.31c0,.26.34.47.46.2a138.9,138.9,0,0,1,8.38-16.39l-.46-.06a25.3,25.3,0,0,0,10,12.9l.19-.45c-3.7-1.55-6.06-4.9-8.25-8.1a.26.26,0,0,0-.47.13,75.67,75.67,0,0,0,.89,12.84l.48-.14-2-12.39c0-.24-.35-.2-.46-.06a26.91,26.91,0,0,0-5.05,11,.25.25,0,0,0,.48.13q3.36-8.64,6.18-17.49h-.49l1.73,4.69c.11.3.59.17.48-.13l-1.72-4.69a.26.26,0,0,0-.49,0q-2.82,8.83-6.17,17.49l.48.13a26.69,26.69,0,0,1,5-10.89l-.46-.06,2,12.39c0,.31.53.18.48-.14a75,75,0,0,1-.87-12.7l-.47.12c2.28,3.33,4.72,6.73,8.56,8.33.27.11.41-.31.19-.46A24.77,24.77,0,0,1,585.36,373a.25.25,0,0,0-.45-.06,138.94,138.94,0,0,0-8.38,16.39l.45.2,2.07-11.32c.05-.26-.32-.46-.45-.19A121.4,121.4,0,0,1,570.84,391l.43.26,4.72-9.77a.25.25,0,0,0-.39-.3l-6.08,5.41.42.24c.58-2.19,3.95-4.29,2.68-6.88-.5-1-1.57-1.16-2.58-1.33l-5.66-.94-.06.49q11.94-1.38,24-1.59a.25.25,0,0,0,.07-.49,158.94,158.94,0,0,0-16.85-3.37c-.26,0-.47.31-.19.45A27.7,27.7,0,0,0,587,376a.25.25,0,0,0,.12-.46c-2.15-1.24-4.34-2.4-6.58-3.46a44.36,44.36,0,0,0-6.48-2.75c-.57-.17-2.43-.27-2.11.86.14.51,1.23.82,1.66,1a27.27,27.27,0,0,0,2.68,1.14c3.43,1.26,8.3,2.55,11.58.23,2.16-1.52,3-5,.93-6.94a.26.26,0,0,0-.39.05,33.5,33.5,0,0,0-2.52,5.56h.48a42.59,42.59,0,0,1-1-8.57l-.49.07a9.7,9.7,0,0,1-1.93,7.42h.44a35.74,35.74,0,0,1-4-8l-.46.19a55.82,55.82,0,0,0,12.73,18.39l.17-.42-4-.27a.25.25,0,0,0-.17.43,18,18,0,0,1,3.63,5.46l.34-.34-5-3.43a.27.27,0,0,0-.35.09l-2,4.59.46.2a11.43,11.43,0,0,0,0-6.06.25.25,0,0,0-.37-.14,10.24,10.24,0,0,0-5.23,6.64.25.25,0,0,0,.42.24,65.78,65.78,0,0,0,8.1-8.5c.13-.17,0-.51-.24-.41l-14.32,5.45c-.3.11-.18.59.13.48l8-2.81a.25.25,0,0,0-.13-.49,146.92,146.92,0,0,1-16.76,3.32l.19.46a89.58,89.58,0,0,1,16-6,.26.26,0,0,0-.06-.5L562,378.35v.5a74.41,74.41,0,0,0,23-7,.25.25,0,0,0,.05-.39,33.7,33.7,0,0,0-10.78-7.76c-.21-.1-.48.11-.34.34a22.33,22.33,0,0,0,7.14,7.36l.25-.43a63.47,63.47,0,0,0-15-4.89.26.26,0,0,0-.25.42,24,24,0,0,0,10.57,7.05c.31.1.42-.37.13-.49a45.8,45.8,0,0,0-14.87-3.4c-.27,0-.31.34-.12.47a41.53,41.53,0,0,0,12.61,6.16l.14-.48-14.87-2.07c-.31,0-.46.4-.14.49A107.14,107.14,0,0,0,583.63,378l-.07-.49A121.94,121.94,0,0,1,555.62,382a.25.25,0,0,0,0,.5c8.63.14,17-2.26,25.64-2.55a32.59,32.59,0,0,1,12.51,1.83c3.8,1.4,7.49,3.32,11.64,3.2.23,0,.37-.37.13-.47a137.17,137.17,0,0,0-17.95-6.15l-.06.49q8-.5,16.09-.49c.28,0,.36-.44.07-.49a49.36,49.36,0,0,1-11.82-3.53l-.06.46,11.45-1.91-.13-.49A33.69,33.69,0,0,1,590,374.93l.18.42,9.24-7.94c.21-.18-.07-.55-.31-.39q-4.54,3.19-8.83,6.75l.4.3,5.9-9.39c.16-.25-.18-.47-.39-.3a21,21,0,0,0-6.31,8.88l.48.13,3.37-11.9c.07-.26-.33-.45-.46-.19a62,62,0,0,0-5.21,14.83C588,376.44,588.49,376.58,588.56,376.26Z"/><path class="cls-3" d="M579.84,384.86c-.71,2.51-1.09,3-.71,3.63.55.86,2,.91,3.26,1s3.26.12,4.11-1c.28-.39.38-.84,0-3.21-.56-3.21-.86-4.82-1.76-5.23a3.56,3.56,0,0,0-3.47.82C580.49,381.5,580.66,382,579.84,384.86Z"/><path class="cls-2" d="M589.18,429.09a22,22,0,0,1,13.76-19.47l-.28-.37c-2.54,3.31-6.39,5.28-8.71,8.81s-2.76,7.64-5.24,10.9c-.19.26.24.51.44.26,2.47-3.26,3-7.51,5.23-10.91s6.17-5.5,8.71-8.81a.25.25,0,0,0-.28-.37,22.53,22.53,0,0,0-14.13,20c0,.32.49.32.5,0Z"/><path class="cls-2" d="M590.15,472.55a42.89,42.89,0,0,0-7.77-10.33,38.87,38.87,0,0,0-4.83-4,8.34,8.34,0,0,0-5.82-1.9.25.25,0,0,0-.12.46c3.63,2.4,7.77,3.9,11.38,6.32,3.28,2.21,6.23,5.54,6.69,9.61,0,.32.54.32.5,0-1.07-9.39-11.68-12-18.32-16.36l-.13.47c2.28-.3,4.3.88,6.07,2.19a40.7,40.7,0,0,1,4.66,4,42.2,42.2,0,0,1,7.25,9.8.25.25,0,0,0,.44-.25Z"/><path class="cls-2" d="M274.71,512.13a12.45,12.45,0,0,0-3.21-9.2l-.35.35a13.65,13.65,0,0,1,3.47,4.37.25.25,0,0,0,.46-.13q-.09-9.79-.43-19.6l-.49.07a93.74,93.74,0,0,1,1.23,24.35l.25-.25-.73,0c-.32,0-.32.51,0,.5l.73,0a.25.25,0,0,0,.25-.25,93.87,93.87,0,0,0-1.25-24.48.25.25,0,0,0-.49.06q.35,9.79.43,19.6l.47-.12a13.76,13.76,0,0,0-3.55-4.47.25.25,0,0,0-.35.35,11.9,11.9,0,0,1,3.06,8.85c0,.32.48.32.5,0Z"/><path class="cls-2" d="M615.17,514.38c-.5-9.69-.87-20.59,6-28.32l-.4-.3a58.91,58.91,0,0,0-4.92,22q0,1.94,0,3.87c0,.61.09,1.22.1,1.82,0,.91-.41.67-1.21.69a.25.25,0,0,0,0,.5l1.53,0a.25.25,0,0,0,.25-.25A58.78,58.78,0,0,1,621.23,486c.1-.24-.19-.54-.4-.3-7,7.84-6.67,18.84-6.16,28.67,0,.32.51.32.5,0Z"/><path class="cls-2" d="M436.56,514.87c.32-7.31.65-15.54-4.12-21.64-.15-.2-.5,0-.42.24a49.81,49.81,0,0,1,3.1,21.39.25.25,0,0,0,.25.25l1,0c.32,0,.32-.49,0-.5l-1,0,.25.25a50,50,0,0,0-3.12-21.52l-.41.24c4.67,6,4.29,14.14,4,21.29,0,.32.48.32.5,0Z"/><path class="cls-3" d="M163.71,411h0a16.53,16.53,0,0,1,1.69,13.2c-.14.45-.74.52-1.18.13A50.4,50.4,0,0,1,155.16,414a24.84,24.84,0,0,1-2.26-4.45c-.08-.18-.14-.37-.21-.55h0"/><path class="cls-3" d="M155.13,401.3h0"/><path class="cls-3" d="M143.28,413c.73-3.87,2.11-7.72,4.66-10.32a5.48,5.48,0,0,0,1.61.78,8.25,8.25,0,0,0,3,.44,36.67,36.67,0,0,1,.18,5.05h0c-.19,5.64-1.84,13.63-9.05,17.47-.42.22-.9-.14-.94-.72A52.25,52.25,0,0,1,143.28,413Z"/><path class="cls-3" d="M146.8,399.49l-.32.12h0c-8.4,2.33-14.21,14.44-15.79,18.12-.23.53,0,1.08.5,1.08a15.27,15.27,0,0,0,8.25-2.49h0a20.39,20.39,0,0,0,3.89-3.3"/><path class="cls-3" d="M142.68,418h0a13.65,13.65,0,0,1-3.88,4.4.4.4,0,0,1-.63-.3,12.19,12.19,0,0,1,1.22-5.72h0"/><path class="cls-3" d="M151.68,415.87h0c.21,2.57.8,6.13,2.48,8.63a.39.39,0,0,0,.7-.06c.49-1.29,1.35-4.67.31-10.45h0"/><path class="cls-3" d="M152.9,409.54a.48.48,0,0,0-.24.11"/><path class="cls-3" d="M148.49,422.38c-.33,2.28-.35,4.24.13,4.37s1.55-2,2-3.12a16.88,16.88,0,0,0,1.13-7c0-.24,0-.47-.06-.68,0,0,0,0,0-.05"/><path class="cls-3" d="M159.09,419.22a16.53,16.53,0,0,1,.43,2.1c0,.21.46,3.36-.08,3.75-.69.49-2.45-3.84-2.68-4.39-.41-1-.82-2.18-1.17-3.31"/><path class="cls-3" d="M141.18,420.1c0,.23-.08.46-.11.71-.18,1.37-.36,3.76,0,3.84s1-1.83,1.07-2.08a11,11,0,0,0,.42-1.62h0"/><path class="cls-3" d="M147.94,402.71a2.94,2.94,0,0,1-.85-1,3.51,3.51,0,0,1-.29-2.21,2.94,2.94,0,0,1,.76-1.51c1.31-1.34,3.53-.67,4.43-.4a4.19,4.19,0,0,1,1.54.73,4.55,4.55,0,0,1,1.6,3h0a2.48,2.48,0,0,1-.32,1.5,2.7,2.7,0,0,1-2.3,1.13"/><path class="cls-3" d="M146.8,399.49a20.76,20.76,0,0,0-6.92.33,17.29,17.29,0,0,0-7.93,3.91c-.23.21-2.31,2.07-2,2.59.22.36,1.42-.11,5.8-1.64,3.23-1.14,3.59-1.23,4.75-1.65h0"/><path class="cls-3" d="M155,402.52l.73.58c1.71,1.32,2.63,2,3.26,2.44h0a9.81,9.81,0,0,1,1.42,1.22c.84.88.57.82,2.55,3.28l.79,1h0c1.2,1.47,1.84,2.18,2.11,2.07.54-.25.1-3.06-1.09-5.4a12.4,12.4,0,0,0-4.31-4.74,14.09,14.09,0,0,0-5.33-2"/><path class="cls-3" d="M148.27,422.85a272.59,272.59,0,0,0-6.1,35.44,279.8,279.8,0,0,0-.25,56"/><path class="cls-3" d="M394.17,378h0c0,.14,0,.28-.05.43a18.87,18.87,0,0,1-.84,3.57,37.36,37.36,0,0,1-4.54,8.86c-.24.35-.66.38-.83.07a13,13,0,0,1-.9-9.85h0"/><path class="cls-3" d="M391.32,372.74h0"/><path class="cls-3" d="M401.2,379.56c-1.1-2.71-2.64-5.31-4.77-6.83a3.75,3.75,0,0,1-1,.8,5.53,5.53,0,0,1-1.94.75,31.21,31.21,0,0,0,.66,3.7h0c1,4.07,3.38,9.65,8.88,11.39.31.1.58-.23.52-.66A41.31,41.31,0,0,0,401.2,379.56Z"/><path class="cls-3" d="M401.2,379.56a14.16,14.16,0,0,0,3.16,1.83h0a10,10,0,0,0,6,.61c.33-.06.41-.5.17-.85-1.65-2.45-7.48-10.42-13.55-10.89h0l-.24,0"/><path class="cls-3" d="M404.36,381.39h0a9.54,9.54,0,0,1,1.71,4,.28.28,0,0,1-.38.31,9.86,9.86,0,0,1-3.31-2.64h0"/><path class="cls-3" d="M393.28,382h0c.19,4.36,1.3,6.69,1.84,7.56a.26.26,0,0,0,.48-.06,14.76,14.76,0,0,0,.34-6.64h0"/><path class="cls-3" d="M394.3,378.46a.3.3,0,0,0-.18,0"/><path class="cls-3" d="M395.94,382.86s0,0,0,0,0,.33.07.5a13.34,13.34,0,0,0,1.86,4.94c.47.74,1.5,2.16,1.84,2s0-1.59-.6-3.2"/><path class="cls-3" d="M393.51,384.5c-.06.88-.16,1.79-.28,2.58-.07.44-.59,3.85-1.13,3.59s-.63-2.56-.65-2.72a14.36,14.36,0,0,1,0-1.59"/><path class="cls-3" d="M402.92,385.21h0a7.43,7.43,0,0,0,.54,1.12c.09.17.83,1.46,1.05,1.36s-.26-1.82-.6-2.79c-.06-.18-.12-.34-.18-.5"/><path class="cls-3" d="M393.51,374.28a1.84,1.84,0,0,1-1.74-.49,2,2,0,0,1-.45-1h0a3.42,3.42,0,0,1,.63-2.4,2.86,2.86,0,0,1,.93-.76c.56-.32,2-1.13,3.07-.35a2.26,2.26,0,0,1,.75,1,2.83,2.83,0,0,1,.15,1.65,2.38,2.38,0,0,1-.42.86"/><path class="cls-3" d="M401.52,371.88h0c.85.14,1.11.16,3.48.51,3.22.48,4.1.64,4.2.35s-1.56-1.48-1.75-1.6a11.7,11.7,0,0,0-6-1.69,13.38,13.38,0,0,0-4.75.77"/><path class="cls-3" d="M391.3,372.51a9.25,9.25,0,0,0-3.31,2.22,8.92,8.92,0,0,0-2.19,4.07c-.45,1.88-.31,4,.1,4.08.2.05.52-.56,1.11-1.81h0l.38-.82c1-2.08.79-2,1.23-2.76a6.81,6.81,0,0,1,.77-1.1h0c.36-.44.88-1.05,1.84-2.26.15-.19.29-.36.4-.52"/><path class="cls-2" d="M385.93,509.15c-.45-7.17-.2-14.3-.16-21.48a220.7,220.7,0,0,1,1-23.84c1.92-16.78,6.45-33.12,8.81-49.83a125.31,125.31,0,0,0,1.13-27.77c0-.32-.53-.32-.5,0,1.38,16.86-1.84,33.48-5.17,49.93-1.64,8.14-3.29,16.28-4.38,24.51a188,188,0,0,0-1.37,24.42c0,8-.36,16,.15,24.06,0,.32.52.32.5,0Z"/><path class="cls-2" d="M391.76,434.81c2.11.07,4.23-.46,6.33-.17a9.18,9.18,0,0,1,5.21,2.61l.17-.43a18.52,18.52,0,0,1-3.33,0,11.57,11.57,0,0,1-3-.45c-.88-.3-1.65-.83-2.51-1.16s-1.95-.3-2.76-.88c-.26-.19-.51.24-.25.43a9.22,9.22,0,0,0,2.69.87c.94.31,1.76.9,2.7,1.22a11,11,0,0,0,2.92.46,19.82,19.82,0,0,0,3.53,0,.25.25,0,0,0,.18-.42,9.62,9.62,0,0,0-5.17-2.7c-2.23-.38-4.48.18-6.72.11-.32,0-.32.49,0,.5Z"/><path class="cls-2" d="M143.42,448.65a5.35,5.35,0,0,0-1.4-2.2,17.77,17.77,0,0,0-2.15-2,6.86,6.86,0,0,0-5.16-1.58c-.14,0-.2.19-.18.31a19.77,19.77,0,0,0,1.08,3.26,4.77,4.77,0,0,0,2,2.22,7.29,7.29,0,0,0,5.65.31.25.25,0,0,0-.13-.48,6.83,6.83,0,0,1-5.27-.26,4.36,4.36,0,0,1-1.84-2.11,19.28,19.28,0,0,1-1-3.07l-.18.3a6.5,6.5,0,0,1,4.91,1.63,17.37,17.37,0,0,1,1.76,1.67,5.19,5.19,0,0,1,1.43,2.15.25.25,0,0,0,.48-.14Z"/><text class="cls-5" transform="translate(91.23 106.39)">flora</text><text class="cls-6" transform="translate(117.75 135.83)">digital designe<tspan class="cls-7" x="136.84" y="0">r</tspan><tspan x="144" y="0">.</tspan></text></g></svg>