<svg xmlns="http://www.w3.org/2000/svg" viewBox="0 0 807.63 455.52"><defs><style>.cls-1{fill:none;stroke:#010101;stroke-miterlimit:10;}</style></defs><g id="Lager_2" data-name="Lager 2"><g id="Lager_1-2" data-name="Lager 1"><path class="cls-1" d="M107.3.5H702.23A13.77,13.77,0,0,1,716,14.27V415a0,0,0,0,1,0,0H92.71a0,0,0,0,1,0,0V15.08A14.58,14.58,0,0,1,107.3.5Z"/><rect class="cls-1" x="128.73" y="36.89" width="547.41" height="343.34"/><path class="cls-1" d="M5.66,415H801.07a6.07,6.07,0,0,1,6.07,6.07v22.55a0,0,0,0,1,0,0H.5a0,0,0,0,1,0,0V420.2A5.16,5.16,0,0,1,5.66,415Z"/><path class="cls-1" d="M.5,443.65H807.13a0,0,0,0,1,0,0v0A11.37,11.37,0,0,1,795.76,455H11.87A11.37,11.37,0,0,1,.5,443.65v0a0,0,0,0,1,0,0Z"/><path class="cls-1" d="M341.27,415H466.36a0,0,0,0,1,0,0v11.71a2.6,2.6,0,0,1-2.6,2.6H343.64a2.37,2.37,0,0,1-2.37-2.37V415A0,0,0,0,1,341.27,415Z"/><rect class="cls-1" x="739.39" y="427.52" width="35" height="3.64" rx="1.82"/></g></g></svg>